STARTFONT 2.1
FONT -FontForge-Courgette-Book-R-Normal--14-140-72-72-P-73-ISO10646-1
SIZE 14 72 72
FONTBOUNDINGBOX 19 18 -3 -4
COMMENT "Generated by fontforge, http://fontforge.sourceforge.net"
COMMENT "Copyright (c) 2012, Sorkin Type Co (www.sorkintype.com) with Reserved Font Name "Courgette"."
STARTPROPERTIES 40
FOUNDRY "FontForge"
FAMILY_NAME "Courgette"
WEIGHT_NAME "Book"
SLANT "R"
SETWIDTH_NAME "Normal"
ADD_STYLE_NAME ""
PIXEL_SIZE 14
POINT_SIZE 140
RESOLUTION_X 72
RESOLUTION_Y 72
SPACING "P"
AVERAGE_WIDTH 73
CHARSET_REGISTRY "ISO10646"
CHARSET_ENCODING "1"
FONTNAME_REGISTRY ""
CHARSET_COLLECTIONS "ISO8859-2 ISO8859-9 ISO8859-4 ISO10646-1"
FONT_NAME "Courgette-Regular"
FACE_NAME "Courgette Regular"
COPYRIGHT "Copyright (c) 2012, Sorkin Type Co (www.sorkintype.com) with Reserved Font Name "Courgette"."
FONT_VERSION "1.002"
FONT_ASCENT 11
FONT_DESCENT 3
UNDERLINE_POSITION -1
UNDERLINE_THICKNESS 1
X_HEIGHT 6
CAP_HEIGHT 10
DEFAULT_CHAR 1
RAW_ASCENT 799
RAW_DESCENT 200
NORM_SPACE 4
RELATIVE_WEIGHT 40
RELATIVE_SETWIDTH 50
SUPERSCRIPT_X 0
SUPERSCRIPT_Y 6
SUPERSCRIPT_SIZE 9
SUBSCRIPT_X 0
SUBSCRIPT_Y 1
SUBSCRIPT_SIZE 9
AVG_LOWERCASE_WIDTH 71
AVG_UPPERCASE_WIDTH 82
ENDPROPERTIES
CHARS 407
STARTCHAR .null.dup1
ENCODING 0
SWIDTH 0 0
DWIDTH 0 0
BBX 1 1 0 0
BITMAP
00
ENDCHAR
STARTCHAR uni0001
ENCODING 1
SWIDTH 0 0
DWIDTH 0 0
BBX 1 1 0 0
BITMAP
00
ENDCHAR
STARTCHAR uni0002
ENCODING 2
SWIDTH 0 0
DWIDTH 0 0
BBX 1 1 0 0
BITMAP
00
ENDCHAR
STARTCHAR uni0003
ENCODING 3
SWIDTH 0 0
DWIDTH 0 0
BBX 1 1 0 0
BITMAP
00
ENDCHAR
STARTCHAR uni0004
ENCODING 4
SWIDTH 0 0
DWIDTH 0 0
BBX 1 1 0 0
BITMAP
00
ENDCHAR
STARTCHAR uni0005
ENCODING 5
SWIDTH 0 0
DWIDTH 0 0
BBX 1 1 0 0
BITMAP
00
ENDCHAR
STARTCHAR uni0006
ENCODING 6
SWIDTH 0 0
DWIDTH 0 0
BBX 1 1 0 0
BITMAP
00
ENDCHAR
STARTCHAR uni0007
ENCODING 7
SWIDTH 0 0
DWIDTH 0 0
BBX 1 1 0 0
BITMAP
00
ENDCHAR
STARTCHAR uni0008
ENCODING 8
SWIDTH 0 0
DWIDTH 0 0
BBX 1 1 0 0
BITMAP
00
ENDCHAR
STARTCHAR uni0009
ENCODING 9
SWIDTH 0 0
DWIDTH 0 0
BBX 1 1 0 0
BITMAP
00
ENDCHAR
STARTCHAR nonmarkingreturn
ENCODING 13
SWIDTH 0 0
DWIDTH 0 0
BBX 1 1 0 0
BITMAP
00
ENDCHAR
STARTCHAR uni0015
ENCODING 21
SWIDTH 0 0
DWIDTH 0 0
BBX 1 1 0 0
BITMAP
00
ENDCHAR
STARTCHAR uni0016
ENCODING 22
SWIDTH 0 0
DWIDTH 0 0
BBX 1 1 0 0
BITMAP
00
ENDCHAR
STARTCHAR uni0017
ENCODING 23
SWIDTH 0 0
DWIDTH 0 0
BBX 1 1 0 0
BITMAP
00
ENDCHAR
STARTCHAR uni0018
ENCODING 24
SWIDTH 0 0
DWIDTH 0 0
BBX 1 1 0 0
BITMAP
00
ENDCHAR
STARTCHAR uni0019
ENCODING 25
SWIDTH 0 0
DWIDTH 0 0
BBX 1 1 0 0
BITMAP
00
ENDCHAR
STARTCHAR space
ENCODING 32
SWIDTH 307 0
DWIDTH 4 0
BBX 1 1 0 0
BITMAP
00
ENDCHAR
STARTCHAR exclam
ENCODING 33
SWIDTH 417 0
DWIDTH 6 0
BBX 5 11 1 0
BITMAP
08
18
30
30
20
60
40
40
40
C0
40
ENDCHAR
STARTCHAR quotedbl
ENCODING 34
SWIDTH 437 0
DWIDTH 6 0
BBX 5 4 2 8
BITMAP
48
D8
90
90
ENDCHAR
STARTCHAR numbersign
ENCODING 35
SWIDTH 725 0
DWIDTH 10 0
BBX 9 11 1 0
BITMAP
0D00
0900
0B00
1A00
7F80
1600
3400
FF00
2C00
4800
4800
ENDCHAR
STARTCHAR dollar
ENCODING 36
SWIDTH 545 0
DWIDTH 8 0
BBX 7 15 1 -2
BITMAP
02
06
1C
22
62
66
6E
60
30
10
98
90
F0
40
80
ENDCHAR
STARTCHAR percent
ENCODING 37
SWIDTH 876 0
DWIDTH 12 0
BBX 10 11 1 0
BITMAP
30C0
5880
D900
9A00
9600
6C00
09C0
1340
2240
62C0
4380
ENDCHAR
STARTCHAR ampersand
ENCODING 38
SWIDTH 563 0
DWIDTH 8 0
BBX 8 11 0 0
BITMAP
0E
31
23
66
24
38
60
4F
C4
4C
78
ENDCHAR
STARTCHAR quotesingle
ENCODING 39
SWIDTH 231 0
DWIDTH 3 0
BBX 2 4 2 8
BITMAP
40
C0
80
80
ENDCHAR
STARTCHAR parenleft
ENCODING 40
SWIDTH 478 0
DWIDTH 7 0
BBX 6 16 2 -3
BITMAP
04
08
10
20
60
40
C0
80
80
80
80
80
80
80
C0
60
ENDCHAR
STARTCHAR parenright
ENCODING 41
SWIDTH 478 0
DWIDTH 7 0
BBX 7 16 -1 -3
BITMAP
18
0C
04
04
04
06
04
04
04
0C
08
18
10
20
40
80
ENDCHAR
STARTCHAR asterisk
ENCODING 42
SWIDTH 518 0
DWIDTH 7 0
BBX 5 5 2 6
BITMAP
30
A0
78
60
90
ENDCHAR
STARTCHAR plus
ENCODING 43
SWIDTH 617 0
DWIDTH 9 0
BBX 7 7 1 2
BITMAP
10
10
10
FE
10
10
10
ENDCHAR
STARTCHAR comma
ENCODING 44
SWIDTH 312 0
DWIDTH 4 0
BBX 3 4 0 -2
BITMAP
60
60
40
80
ENDCHAR
STARTCHAR hyphen
ENCODING 45
SWIDTH 452 0
DWIDTH 6 0
BBX 4 1 1 4
BITMAP
F0
ENDCHAR
STARTCHAR period
ENCODING 46
SWIDTH 270 0
DWIDTH 4 0
BBX 3 2 0 0
BITMAP
E0
C0
ENDCHAR
STARTCHAR slash
ENCODING 47
SWIDTH 405 0
DWIDTH 6 0
BBX 9 15 -1 -2
BITMAP
0080
0180
0100
0300
0200
0400
0400
0800
1800
1000
3000
2000
4000
4000
8000
ENDCHAR
STARTCHAR zero
ENCODING 48
SWIDTH 621 0
DWIDTH 9 0
BBX 8 11 1 0
BITMAP
0E
13
23
63
43
C2
C6
84
8C
98
70
ENDCHAR
STARTCHAR one
ENCODING 49
SWIDTH 405 0
DWIDTH 6 0
BBX 5 11 1 0
BITMAP
18
38
50
10
30
20
20
60
40
C0
80
ENDCHAR
STARTCHAR two
ENCODING 50
SWIDTH 524 0
DWIDTH 7 0
BBX 7 11 0 0
BITMAP
1E
32
22
32
26
0C
1C
38
60
40
FC
ENDCHAR
STARTCHAR three
ENCODING 51
SWIDTH 537 0
DWIDTH 8 0
BBX 7 11 1 0
BITMAP
1C
26
66
66
0C
18
38
08
D8
90
E0
ENDCHAR
STARTCHAR four
ENCODING 52
SWIDTH 529 0
DWIDTH 7 0
BBX 6 11 1 0
BITMAP
20
30
20
64
4C
CC
88
FC
10
30
20
ENDCHAR
STARTCHAR five
ENCODING 53
SWIDTH 540 0
DWIDTH 8 0
BBX 8 11 0 0
BITMAP
1F
17
10
30
3C
26
06
06
44
CC
70
ENDCHAR
STARTCHAR six
ENCODING 54
SWIDTH 554 0
DWIDTH 8 0
BBX 7 11 1 0
BITMAP
0E
32
26
60
40
D8
E4
C4
8C
88
70
ENDCHAR
STARTCHAR seven
ENCODING 55
SWIDTH 473 0
DWIDTH 7 0
BBX 6 11 2 0
BITMAP
88
FC
08
10
30
60
40
C0
80
80
80
ENDCHAR
STARTCHAR eight
ENCODING 56
SWIDTH 524 0
DWIDTH 7 0
BBX 7 11 1 0
BITMAP
1C
26
66
66
64
38
70
D8
88
98
F0
ENDCHAR
STARTCHAR nine
ENCODING 57
SWIDTH 554 0
DWIDTH 8 0
BBX 7 11 1 0
BITMAP
1C
26
66
46
46
4C
74
0C
88
90
E0
ENDCHAR
STARTCHAR colon
ENCODING 58
SWIDTH 312 0
DWIDTH 4 0
BBX 4 7 0 0
BITMAP
20
30
20
00
00
60
C0
ENDCHAR
STARTCHAR semicolon
ENCODING 59
SWIDTH 312 0
DWIDTH 4 0
BBX 4 9 0 -2
BITMAP
20
30
20
00
00
60
60
40
80
ENDCHAR
STARTCHAR less
ENCODING 60
SWIDTH 637 0
DWIDTH 9 0
BBX 7 7 1 1
BITMAP
02
0C
30
C0
60
18
06
ENDCHAR
STARTCHAR equal
ENCODING 61
SWIDTH 617 0
DWIDTH 9 0
BBX 7 3 1 4
BITMAP
FE
00
FE
ENDCHAR
STARTCHAR greater
ENCODING 62
SWIDTH 606 0
DWIDTH 8 0
BBX 7 7 1 1
BITMAP
C0
30
1C
06
18
60
80
ENDCHAR
STARTCHAR question
ENCODING 63
SWIDTH 516 0
DWIDTH 7 0
BBX 7 11 1 0
BITMAP
1C
24
26
2C
1C
30
20
40
00
C0
C0
ENDCHAR
STARTCHAR at
ENCODING 64
SWIDTH 905 0
DWIDTH 13 0
BBX 11 11 1 -2
BITMAP
0F80
1060
66A0
4920
9920
9320
9640
9B80
8000
4000
3E00
ENDCHAR
STARTCHAR A
ENCODING 65
SWIDTH 615 0
DWIDTH 9 0
BBX 10 11 -1 0
BITMAP
00C0
03C0
0680
0480
0980
1FC0
3100
2300
2300
4300
C380
ENDCHAR
STARTCHAR B
ENCODING 66
SWIDTH 551 0
DWIDTH 8 0
BBX 7 11 1 0
BITMAP
7C
C2
32
62
66
CC
F8
8C
8C
88
F0
ENDCHAR
STARTCHAR C
ENCODING 67
SWIDTH 533 0
DWIDTH 7 0
BBX 8 11 1 0
BITMAP
0E
32
23
66
C4
C0
80
80
80
C8
78
ENDCHAR
STARTCHAR D
ENCODING 68
SWIDTH 630 0
DWIDTH 9 0
BBX 8 11 1 0
BITMAP
7C
C2
33
21
63
43
C2
C6
8C
98
E0
ENDCHAR
STARTCHAR E
ENCODING 69
SWIDTH 509 0
DWIDTH 7 0
BBX 7 11 1 0
BITMAP
1E
32
66
4C
40
70
70
C0
88
88
F0
ENDCHAR
STARTCHAR F
ENCODING 70
SWIDTH 518 0
DWIDTH 7 0
BBX 9 11 0 0
BITMAP
7880
4F00
4800
1800
1800
3E00
3000
3000
2000
6000
C000
ENDCHAR
STARTCHAR G
ENCODING 71
SWIDTH 598 0
DWIDTH 8 0
BBX 8 11 1 0
BITMAP
0E
32
23
62
C6
C4
80
9E
8C
C8
70
ENDCHAR
STARTCHAR H
ENCODING 72
SWIDTH 668 0
DWIDTH 9 0
BBX 11 11 -1 0
BITMAP
3860
0C60
0C60
0840
18C0
3FC0
1080
3180
2100
6100
C180
ENDCHAR
STARTCHAR I
ENCODING 73
SWIDTH 327 0
DWIDTH 5 0
BBX 5 11 0 0
BITMAP
78
18
18
18
10
30
30
20
60
40
80
ENDCHAR
STARTCHAR J
ENCODING 74
SWIDTH 393 0
DWIDTH 6 0
BBX 8 15 -2 -4
BITMAP
0F
1B
03
03
02
06
06
04
0C
08
18
10
30
60
C0
ENDCHAR
STARTCHAR K
ENCODING 75
SWIDTH 616 0
DWIDTH 9 0
BBX 10 11 -1 0
BITMAP
38C0
08C0
08C0
1880
1900
1E00
1C00
3400
2600
6300
C1C0
ENDCHAR
STARTCHAR L
ENCODING 76
SWIDTH 517 0
DWIDTH 7 0
BBX 8 11 0 0
BITMAP
06
09
19
13
36
24
60
60
40
9C
FE
ENDCHAR
STARTCHAR M
ENCODING 77
SWIDTH 931 0
DWIDTH 13 0
BBX 14 11 -1 0
BITMAP
018C
0394
053C
0D28
0B58
1358
1290
2290
2330
4330
8218
ENDCHAR
STARTCHAR N
ENCODING 78
SWIDTH 708 0
DWIDTH 10 0
BBX 11 11 0 0
BITMAP
0C40
1C60
1C60
2C40
2C40
6CC0
4480
4500
C700
C700
8200
ENDCHAR
STARTCHAR O
ENCODING 79
SWIDTH 655 0
DWIDTH 9 0
BBX 8 11 1 0
BITMAP
0E
11
21
61
41
C3
C3
86
84
8C
70
ENDCHAR
STARTCHAR P
ENCODING 80
SWIDTH 553 0
DWIDTH 8 0
BBX 10 11 -1 0
BITMAP
0F00
3080
0CC0
08C0
1980
1B00
1E00
3000
2000
6000
C000
ENDCHAR
STARTCHAR Q
ENCODING 81
SWIDTH 655 0
DWIDTH 9 0
BBX 9 13 1 -2
BITMAP
0E00
3100
2100
6100
4300
C300
C200
C600
CC00
1800
7800
0E00
0380
ENDCHAR
STARTCHAR R
ENCODING 82
SWIDTH 623 0
DWIDTH 9 0
BBX 9 11 0 0
BITMAP
1E00
2100
1980
1180
3300
3600
3800
6C00
6400
C600
8300
ENDCHAR
STARTCHAR S
ENCODING 83
SWIDTH 474 0
DWIDTH 7 0
BBX 8 11 0 0
BITMAP
0E
33
23
23
26
30
30
18
48
C8
70
ENDCHAR
STARTCHAR T
ENCODING 84
SWIDTH 471 0
DWIDTH 7 0
BBX 8 11 1 0
BITMAP
71
9E
98
10
30
30
30
20
60
40
80
ENDCHAR
STARTCHAR U
ENCODING 85
SWIDTH 624 0
DWIDTH 9 0
BBX 10 11 0 0
BITMAP
18C0
1880
1180
3180
3300
6300
6700
4600
CA00
D200
6380
ENDCHAR
STARTCHAR V
ENCODING 86
SWIDTH 587 0
DWIDTH 8 0
BBX 9 11 1 0
BITMAP
F180
1180
3180
3180
6300
6600
4C00
C800
D000
E000
4000
ENDCHAR
STARTCHAR W
ENCODING 87
SWIDTH 941 0
DWIDTH 13 0
BBX 13 11 1 0
BITMAP
F018
3018
3198
2318
6618
6E10
DE30
D620
A460
A4C0
C300
ENDCHAR
STARTCHAR X
ENCODING 88
SWIDTH 552 0
DWIDTH 8 0
BBX 11 11 -1 0
BITMAP
0C60
0CC0
0D80
0F00
0E00
0C00
0C00
1C00
1600
2600
C380
ENDCHAR
STARTCHAR Y
ENCODING 89
SWIDTH 580 0
DWIDTH 8 0
BBX 10 15 0 -4
BITMAP
38C0
1880
1180
3180
3300
6300
6600
4600
CA00
D400
6400
0800
1800
3000
6000
ENDCHAR
STARTCHAR Z
ENCODING 90
SWIDTH 501 0
DWIDTH 7 0
BBX 8 11 0 0
BITMAP
23
3D
03
06
0C
18
30
60
40
BC
C2
ENDCHAR
STARTCHAR bracketleft
ENCODING 91
SWIDTH 396 0
DWIDTH 6 0
BBX 7 15 0 -2
BITMAP
06
0C
0C
08
18
10
10
30
20
20
60
40
40
C0
E0
ENDCHAR
STARTCHAR backslash
ENCODING 92
SWIDTH 464 0
DWIDTH 7 0
BBX 4 15 1 -2
BITMAP
80
80
80
80
40
40
40
60
20
20
20
30
10
10
10
ENDCHAR
STARTCHAR bracketright
ENCODING 93
SWIDTH 394 0
DWIDTH 6 0
BBX 8 15 -1 -3
BITMAP
07
02
02
06
04
0C
0C
08
18
10
10
30
20
20
E0
ENDCHAR
STARTCHAR asciicircum
ENCODING 94
SWIDTH 540 0
DWIDTH 8 0
BBX 6 6 1 5
BITMAP
10
38
28
4C
44
84
ENDCHAR
STARTCHAR underscore
ENCODING 95
SWIDTH 530 0
DWIDTH 7 0
BBX 9 1 -2 -2
BITMAP
FF80
ENDCHAR
STARTCHAR grave
ENCODING 96
SWIDTH 219 0
DWIDTH 3 0
BBX 1 4 1 7
BITMAP
80
80
80
80
ENDCHAR
STARTCHAR a
ENCODING 97
SWIDTH 541 0
DWIDTH 8 0
BBX 8 7 0 0
BITMAP
1F
26
66
44
CC
4C
76
ENDCHAR
STARTCHAR b
ENCODING 98
SWIDTH 525 0
DWIDTH 7 0
BBX 6 12 1 0
BITMAP
20
20
20
60
40
58
EC
CC
8C
88
98
E0
ENDCHAR
STARTCHAR c
ENCODING 99
SWIDTH 465 0
DWIDTH 7 0
BBX 6 7 0 0
BITMAP
1C
24
6C
44
C0
44
78
ENDCHAR
STARTCHAR d
ENCODING 100
SWIDTH 557 0
DWIDTH 8 0
BBX 8 12 1 0
BITMAP
01
03
03
02
06
3C
64
CC
8C
98
98
EC
ENDCHAR
STARTCHAR e
ENCODING 101
SWIDTH 471 0
DWIDTH 7 0
BBX 5 7 1 0
BITMAP
38
48
C8
98
E0
88
F0
ENDCHAR
STARTCHAR f
ENCODING 102
SWIDTH 393 0
DWIDTH 6 0
BBX 8 14 0 -2
BITMAP
06
0B
1A
16
10
30
7C
20
20
60
40
40
C0
80
ENDCHAR
STARTCHAR g
ENCODING 103
SWIDTH 526 0
DWIDTH 7 0
BBX 6 11 1 -4
BITMAP
3C
44
CC
8C
98
98
F8
10
30
60
C0
ENDCHAR
STARTCHAR h
ENCODING 104
SWIDTH 555 0
DWIDTH 8 0
BBX 7 12 0 0
BITMAP
10
18
18
10
10
36
2A
36
66
4C
CC
86
ENDCHAR
STARTCHAR i
ENCODING 105
SWIDTH 286 0
DWIDTH 4 0
BBX 5 11 0 0
BITMAP
38
10
00
00
70
20
20
40
40
C0
60
ENDCHAR
STARTCHAR j
ENCODING 106
SWIDTH 281 0
DWIDTH 4 0
BBX 6 15 -2 -4
BITMAP
0C
0C
00
00
18
08
08
18
18
10
30
20
20
40
80
ENDCHAR
STARTCHAR k
ENCODING 107
SWIDTH 497 0
DWIDTH 7 0
BBX 7 12 0 0
BITMAP
10
18
10
10
10
36
26
2C
70
50
DA
8C
ENDCHAR
STARTCHAR l
ENCODING 108
SWIDTH 279 0
DWIDTH 4 0
BBX 4 12 0 0
BITMAP
10
10
10
10
30
20
20
60
40
40
D0
60
ENDCHAR
STARTCHAR m
ENCODING 109
SWIDTH 814 0
DWIDTH 11 0
BBX 11 7 0 0
BITMAP
76E0
2B60
3660
66C0
44C0
CCA0
88C0
ENDCHAR
STARTCHAR n
ENCODING 110
SWIDTH 561 0
DWIDTH 8 0
BBX 7 7 0 0
BITMAP
66
2A
36
66
44
CC
86
ENDCHAR
STARTCHAR o
ENCODING 111
SWIDTH 514 0
DWIDTH 7 0
BBX 6 7 1 0
BITMAP
38
4C
CC
8C
98
90
E0
ENDCHAR
STARTCHAR p
ENCODING 112
SWIDTH 550 0
DWIDTH 8 0
BBX 8 11 -1 -4
BITMAP
37
19
31
33
23
26
7C
40
40
C0
80
ENDCHAR
STARTCHAR q
ENCODING 113
SWIDTH 533 0
DWIDTH 7 0
BBX 7 11 1 -4
BITMAP
3C
66
CC
8C
98
98
F0
10
10
30
10
ENDCHAR
STARTCHAR r
ENCODING 114
SWIDTH 407 0
DWIDTH 6 0
BBX 6 7 0 0
BITMAP
6C
2C
30
60
40
C0
C0
ENDCHAR
STARTCHAR s
ENCODING 115
SWIDTH 423 0
DWIDTH 6 0
BBX 6 7 0 0
BITMAP
3C
64
68
30
10
90
70
ENDCHAR
STARTCHAR t
ENCODING 116
SWIDTH 358 0
DWIDTH 5 0
BBX 5 9 1 0
BITMAP
30
20
F8
40
40
C0
C0
90
E0
ENDCHAR
STARTCHAR u
ENCODING 117
SWIDTH 553 0
DWIDTH 8 0
BBX 8 7 0 0
BITMAP
33
22
26
64
4C
DC
66
ENDCHAR
STARTCHAR v
ENCODING 118
SWIDTH 510 0
DWIDTH 7 0
BBX 7 7 0 0
BITMAP
36
26
26
64
44
C8
70
ENDCHAR
STARTCHAR w
ENCODING 119
SWIDTH 750 0
DWIDTH 11 0
BBX 10 7 0 0
BITMAP
70C0
2640
2440
6C40
5C80
6D80
C600
ENDCHAR
STARTCHAR x
ENCODING 120
SWIDTH 467 0
DWIDTH 7 0
BBX 7 7 0 0
BITMAP
26
2C
38
30
30
50
9C
ENDCHAR
STARTCHAR y
ENCODING 121
SWIDTH 549 0
DWIDTH 8 0
BBX 8 11 0 -4
BITMAP
33
32
26
66
4C
D4
6C
08
18
30
60
ENDCHAR
STARTCHAR z
ENCODING 122
SWIDTH 430 0
DWIDTH 6 0
BBX 6 7 0 0
BITMAP
3C
0C
18
30
60
D0
F8
ENDCHAR
STARTCHAR braceleft
ENCODING 123
SWIDTH 424 0
DWIDTH 6 0
BBX 7 15 1 -3
BITMAP
0E
08
18
18
10
10
30
E0
40
40
40
C0
80
80
C0
ENDCHAR
STARTCHAR bar
ENCODING 124
SWIDTH 306 0
DWIDTH 4 0
BBX 1 15 2 -2
BITMAP
80
80
80
80
80
80
80
80
80
80
80
80
80
80
80
ENDCHAR
STARTCHAR braceright
ENCODING 125
SWIDTH 424 0
DWIDTH 6 0
BBX 7 15 -1 -3
BITMAP
06
02
06
06
04
0C
04
0C
18
10
30
30
20
60
C0
ENDCHAR
STARTCHAR asciitilde
ENCODING 126
SWIDTH 624 0
DWIDTH 9 0
BBX 7 3 1 4
BITMAP
72
92
8C
ENDCHAR
STARTCHAR nonbreakingspace
ENCODING 160
SWIDTH 293 0
DWIDTH 4 0
BBX 1 1 0 0
BITMAP
00
ENDCHAR
STARTCHAR exclamdown
ENCODING 161
SWIDTH 417 0
DWIDTH 6 0
BBX 5 11 0 -3
BITMAP
18
18
00
10
20
20
60
40
40
C0
40
ENDCHAR
STARTCHAR cent
ENCODING 162
SWIDTH 487 0
DWIDTH 7 0
BBX 6 11 1 0
BITMAP
0C
08
38
6C
4C
C8
C0
C8
70
40
40
ENDCHAR
STARTCHAR sterling
ENCODING 163
SWIDTH 665 0
DWIDTH 9 0
BBX 9 11 0 0
BITMAP
0380
0680
0480
0C80
0D80
0900
3E00
1000
F000
B900
EF00
ENDCHAR
STARTCHAR currency
ENCODING 164
SWIDTH 572 0
DWIDTH 8 0
BBX 7 9 1 0
BITMAP
20
3E
24
64
4C
CC
58
F8
88
ENDCHAR
STARTCHAR yen
ENCODING 165
SWIDTH 583 0
DWIDTH 8 0
BBX 9 11 1 0
BITMAP
C180
6300
2600
2400
3800
1800
7C00
1000
F800
2000
2000
ENDCHAR
STARTCHAR brokenbar
ENCODING 166
SWIDTH 292 0
DWIDTH 4 0
BBX 1 15 2 -2
BITMAP
80
80
80
80
80
80
80
00
80
80
80
80
80
80
80
ENDCHAR
STARTCHAR section
ENCODING 167
SWIDTH 583 0
DWIDTH 8 0
BBX 8 15 0 -3
BITMAP
07
09
19
1B
18
1C
2C
66
66
36
3C
18
D8
D0
70
ENDCHAR
STARTCHAR dieresis
ENCODING 168
SWIDTH 412 0
DWIDTH 6 0
BBX 5 2 1 9
BITMAP
D8
98
ENDCHAR
STARTCHAR copyright
ENCODING 169
SWIDTH 871 0
DWIDTH 12 0
BBX 11 11 1 0
BITMAP
0F00
30C0
6640
4960
DB60
9260
9040
9240
CC80
4100
3E00
ENDCHAR
STARTCHAR ordfeminine
ENCODING 170
SWIDTH 564 0
DWIDTH 8 0
BBX 6 6 2 4
BITMAP
34
48
88
98
B0
D8
ENDCHAR
STARTCHAR guillemotleft
ENCODING 171
SWIDTH 662 0
DWIDTH 9 0
BBX 8 6 1 1
BITMAP
11
66
D8
CC
64
22
ENDCHAR
STARTCHAR logicalnot
ENCODING 172
SWIDTH 729 0
DWIDTH 10 0
BBX 8 4 1 1
BITMAP
FF
01
01
01
ENDCHAR
STARTCHAR uni00AD
ENCODING 173
SWIDTH 833 0
DWIDTH 12 0
BBX 1 1 0 0
BITMAP
00
ENDCHAR
STARTCHAR registered
ENCODING 174
SWIDTH 742 0
DWIDTH 10 0
BBX 9 9 1 2
BITMAP
1E00
2100
5E80
5280
9C80
9480
E500
4200
3C00
ENDCHAR
STARTCHAR macron
ENCODING 175
SWIDTH 392 0
DWIDTH 5 0
BBX 5 1 1 8
BITMAP
F8
ENDCHAR
STARTCHAR degree
ENCODING 176
SWIDTH 405 0
DWIDTH 6 0
BBX 4 5 2 6
BITMAP
70
90
90
B0
E0
ENDCHAR
STARTCHAR plusminus
ENCODING 177
SWIDTH 617 0
DWIDTH 9 0
BBX 7 9 1 0
BITMAP
10
10
10
FE
10
10
10
00
FE
ENDCHAR
STARTCHAR twosuperior
ENCODING 178
SWIDTH 458 0
DWIDTH 6 0
BBX 6 7 1 4
BITMAP
38
6C
6C
18
30
40
F8
ENDCHAR
STARTCHAR threesuperior
ENCODING 179
SWIDTH 430 0
DWIDTH 6 0
BBX 6 8 1 3
BITMAP
38
2C
6C
18
30
D8
90
60
ENDCHAR
STARTCHAR acute
ENCODING 180
SWIDTH 322 0
DWIDTH 5 0
BBX 3 3 1 8
BITMAP
20
60
C0
ENDCHAR
STARTCHAR mu
ENCODING 181
SWIDTH 618 0
DWIDTH 9 0
BBX 8 11 0 -4
BITMAP
11
33
22
66
4E
D6
E7
80
80
80
80
ENDCHAR
STARTCHAR paragraph
ENCODING 182
SWIDTH 739 0
DWIDTH 10 0
BBX 12 12 0 -1
BITMAP
03F0
0F60
1E40
1E40
1EC0
0EC0
0480
0C80
0D00
6900
DB00
7200
ENDCHAR
STARTCHAR periodcentered
ENCODING 183
SWIDTH 353 0
DWIDTH 5 0
BBX 2 2 2 4
BITMAP
C0
C0
ENDCHAR
STARTCHAR cedilla
ENCODING 184
SWIDTH 301 0
DWIDTH 4 0
BBX 2 4 1 -3
BITMAP
40
40
40
C0
ENDCHAR
STARTCHAR onesuperior
ENCODING 185
SWIDTH 403 0
DWIDTH 6 0
BBX 4 7 2 4
BITMAP
30
F0
20
60
40
C0
80
ENDCHAR
STARTCHAR ordmasculine
ENCODING 186
SWIDTH 498 0
DWIDTH 7 0
BBX 6 6 1 4
BITMAP
18
64
44
CC
58
70
ENDCHAR
STARTCHAR guillemotright
ENCODING 187
SWIDTH 665 0
DWIDTH 9 0
BBX 7 6 1 1
BITMAP
4C
64
32
66
C8
90
ENDCHAR
STARTCHAR onequarter
ENCODING 188
SWIDTH 988 0
DWIDTH 14 0
BBX 12 12 1 0
BITMAP
0080
1180
3100
D300
3200
26C0
6480
49B0
8920
11F0
3040
2080
ENDCHAR
STARTCHAR onehalf
ENCODING 189
SWIDTH 988 0
DWIDTH 14 0
BBX 12 11 1 0
BITMAP
1080
3100
D100
3200
26E0
2490
4CB0
C860
10C0
3180
23E0
ENDCHAR
STARTCHAR threequarters
ENCODING 190
SWIDTH 1007 0
DWIDTH 14 0
BBX 12 12 1 0
BITMAP
0040
38C0
4880
5900
3340
7240
96C0
B490
EDB0
08F0
1060
3040
ENDCHAR
STARTCHAR questiondown
ENCODING 191
SWIDTH 516 0
DWIDTH 7 0
BBX 7 11 0 -3
BITMAP
04
0E
00
08
18
30
60
C8
98
98
70
ENDCHAR
STARTCHAR Agrave
ENCODING 192
SWIDTH 615 0
DWIDTH 9 0
BBX 10 14 -1 0
BITMAP
0080
0180
00C0
00C0
03C0
0680
0480
0980
1FC0
3100
2300
2300
4300
C380
ENDCHAR
STARTCHAR Aacute
ENCODING 193
SWIDTH 615 0
DWIDTH 9 0
BBX 11 14 -1 0
BITMAP
0020
0060
00C0
00C0
03C0
0680
0480
0980
1FC0
3100
2300
2300
4300
C380
ENDCHAR
STARTCHAR Acircumflex
ENCODING 194
SWIDTH 615 0
DWIDTH 9 0
BBX 11 13 -1 0
BITMAP
00C0
0360
00C0
03C0
0680
0480
0980
1FC0
3100
2300
2300
4300
C380
ENDCHAR
STARTCHAR Atilde
ENCODING 195
SWIDTH 615 0
DWIDTH 9 0
BBX 12 13 -1 0
BITMAP
0190
0260
00C0
03C0
0680
0480
0980
1FC0
3100
2300
2300
4300
C380
ENDCHAR
STARTCHAR Adieresis
ENCODING 196
SWIDTH 615 0
DWIDTH 9 0
BBX 12 14 -1 0
BITMAP
0120
0370
0120
00C0
03C0
0680
0480
0980
1FC0
3100
2300
2300
4300
C380
ENDCHAR
STARTCHAR Aring
ENCODING 197
SWIDTH 615 0
DWIDTH 9 0
BBX 11 14 -1 0
BITMAP
00E0
0120
0160
00C0
0340
02C0
0480
0D80
0980
3FC0
1300
2300
6300
C380
ENDCHAR
STARTCHAR AE
ENCODING 198
SWIDTH 878 0
DWIDTH 12 0
BBX 14 11 -1 0
BITMAP
00FC
0364
02C4
04DC
0C80
0880
3FF0
3180
2190
6110
C1E0
ENDCHAR
STARTCHAR Ccedilla
ENCODING 199
SWIDTH 533 0
DWIDTH 7 0
BBX 8 14 1 -3
BITMAP
0E
32
23
66
C6
C0
80
80
80
C8
78
20
60
C0
ENDCHAR
STARTCHAR Egrave
ENCODING 200
SWIDTH 509 0
DWIDTH 7 0
BBX 7 14 1 0
BITMAP
08
08
0C
1E
32
66
4C
40
70
70
C0
88
88
F0
ENDCHAR
STARTCHAR Eacute
ENCODING 201
SWIDTH 509 0
DWIDTH 7 0
BBX 7 14 1 0
BITMAP
02
02
04
1E
32
66
4C
40
70
70
C0
88
88
F0
ENDCHAR
STARTCHAR Ecircumflex
ENCODING 202
SWIDTH 509 0
DWIDTH 7 0
BBX 7 13 1 0
BITMAP
06
1A
1E
32
66
4C
40
70
70
C0
88
88
F0
ENDCHAR
STARTCHAR Edieresis
ENCODING 203
SWIDTH 509 0
DWIDTH 7 0
BBX 8 14 1 0
BITMAP
12
1B
12
1E
32
66
4C
40
70
70
C0
88
88
F0
ENDCHAR
STARTCHAR Igrave
ENCODING 204
SWIDTH 327 0
DWIDTH 5 0
BBX 5 14 0 0
BITMAP
10
10
18
78
18
18
18
10
30
30
20
60
40
80
ENDCHAR
STARTCHAR Iacute
ENCODING 205
SWIDTH 327 0
DWIDTH 5 0
BBX 6 14 0 0
BITMAP
04
04
0C
78
18
18
18
10
30
30
20
60
40
80
ENDCHAR
STARTCHAR Icircumflex
ENCODING 206
SWIDTH 327 0
DWIDTH 5 0
BBX 7 13 0 0
BITMAP
0C
36
78
18
18
18
10
30
30
20
60
40
80
ENDCHAR
STARTCHAR Idieresis
ENCODING 207
SWIDTH 327 0
DWIDTH 5 0
BBX 7 14 0 0
BITMAP
22
36
24
78
18
18
18
10
30
30
20
60
40
80
ENDCHAR
STARTCHAR Eth
ENCODING 208
SWIDTH 630 0
DWIDTH 9 0
BBX 9 11 0 0
BITMAP
3E00
6100
1980
1180
3180
FD80
6100
6300
4600
4C00
7000
ENDCHAR
STARTCHAR Ntilde
ENCODING 209
SWIDTH 708 0
DWIDTH 10 0
BBX 11 13 0 0
BITMAP
01A0
02C0
0C40
1C60
1C60
2C40
2C40
6CC0
4480
4500
C700
C700
8200
ENDCHAR
STARTCHAR Ograve
ENCODING 210
SWIDTH 655 0
DWIDTH 9 0
BBX 8 14 1 0
BITMAP
04
04
02
0E
11
21
61
41
C3
C3
86
84
8C
70
ENDCHAR
STARTCHAR Oacute
ENCODING 211
SWIDTH 655 0
DWIDTH 9 0
BBX 9 14 1 0
BITMAP
0100
0180
0300
0E00
1100
2100
6100
4100
C300
C300
8600
8400
8C00
7000
ENDCHAR
STARTCHAR Ocircumflex
ENCODING 212
SWIDTH 655 0
DWIDTH 9 0
BBX 9 13 1 0
BITMAP
0300
0D80
0E00
1100
2100
6100
4100
C300
C300
8600
8400
8C00
7000
ENDCHAR
STARTCHAR Otilde
ENCODING 213
SWIDTH 655 0
DWIDTH 9 0
BBX 9 13 1 0
BITMAP
0680
0B00
0E00
1100
2100
6100
4100
C300
C300
8600
8400
8C00
7000
ENDCHAR
STARTCHAR Odieresis
ENCODING 214
SWIDTH 655 0
DWIDTH 9 0
BBX 9 14 1 0
BITMAP
0480
0D80
0880
0E00
1100
2100
6100
4100
C300
C300
8600
8400
8C00
7000
ENDCHAR
STARTCHAR multiply
ENCODING 215
SWIDTH 573 0
DWIDTH 8 0
BBX 6 6 1 2
BITMAP
C4
68
30
30
68
C4
ENDCHAR
STARTCHAR Oslash
ENCODING 216
SWIDTH 655 0
DWIDTH 9 0
BBX 9 13 1 -1
BITMAP
0080
0F00
1B80
3380
2580
6980
4900
D300
D300
E600
6C00
7800
8000
ENDCHAR
STARTCHAR Ugrave
ENCODING 217
SWIDTH 624 0
DWIDTH 9 0
BBX 10 14 0 0
BITMAP
0200
0600
0300
18C0
1880
1180
3180
3300
6300
6700
4600
CA00
D200
6380
ENDCHAR
STARTCHAR Uacute
ENCODING 218
SWIDTH 624 0
DWIDTH 9 0
BBX 10 14 0 0
BITMAP
0100
0180
0300
18C0
1880
1180
3180
3300
6300
6700
4600
CA00
D200
6380
ENDCHAR
STARTCHAR Ucircumflex
ENCODING 219
SWIDTH 624 0
DWIDTH 9 0
BBX 10 13 0 0
BITMAP
0300
0D80
18C0
1880
1180
3180
3300
6300
6700
4600
CA00
D200
6380
ENDCHAR
STARTCHAR Udieresis
ENCODING 220
SWIDTH 624 0
DWIDTH 9 0
BBX 10 14 0 0
BITMAP
0480
0D80
0480
18C0
1880
1180
3180
3300
6300
6700
4600
CA00
D200
6380
ENDCHAR
STARTCHAR Yacute
ENCODING 221
SWIDTH 580 0
DWIDTH 8 0
BBX 10 18 0 -4
BITMAP
0100
0180
0300
38C0
1880
1180
3180
3300
6300
6600
4600
CA00
D400
6400
0800
1800
3000
6000
ENDCHAR
STARTCHAR Thorn
ENCODING 222
SWIDTH 527 0
DWIDTH 7 0
BBX 9 11 -1 0
BITMAP
3800
0800
0800
1E00
1900
1180
3300
3E00
2000
6000
C000
ENDCHAR
STARTCHAR germandbls
ENCODING 223
SWIDTH 520 0
DWIDTH 7 0
BBX 9 14 -1 -2
BITMAP
0700
0D00
0980
1900
1300
1600
3400
3400
2600
2300
6B00
6E00
4000
C000
ENDCHAR
STARTCHAR agrave
ENCODING 224
SWIDTH 541 0
DWIDTH 8 0
BBX 8 11 0 0
BITMAP
0C
08
0C
00
1F
26
66
44
CC
4C
76
ENDCHAR
STARTCHAR aacute
ENCODING 225
SWIDTH 541 0
DWIDTH 8 0
BBX 8 11 0 0
BITMAP
02
06
0C
08
1F
26
66
44
CC
4C
76
ENDCHAR
STARTCHAR acircumflex
ENCODING 226
SWIDTH 541 0
DWIDTH 8 0
BBX 8 11 0 0
BITMAP
02
0E
13
00
1F
26
66
44
CC
4C
76
ENDCHAR
STARTCHAR atilde
ENCODING 227
SWIDTH 541 0
DWIDTH 8 0
BBX 8 11 0 0
BITMAP
0D
15
16
00
1F
26
66
44
CC
4C
76
ENDCHAR
STARTCHAR adieresis
ENCODING 228
SWIDTH 541 0
DWIDTH 8 0
BBX 8 11 0 0
BITMAP
1B
1B
00
00
1F
26
66
44
CC
4C
76
ENDCHAR
STARTCHAR aring
ENCODING 229
SWIDTH 541 0
DWIDTH 8 0
BBX 8 11 0 0
BITMAP
0E
0A
0E
00
1F
26
66
44
CC
4C
76
ENDCHAR
STARTCHAR ae
ENCODING 230
SWIDTH 769 0
DWIDTH 11 0
BBX 11 7 0 0
BITMAP
1FC0
2660
6640
44C0
CF80
4C40
7780
ENDCHAR
STARTCHAR ccedilla
ENCODING 231
SWIDTH 465 0
DWIDTH 7 0
BBX 6 10 0 -3
BITMAP
1C
24
6C
44
C0
48
78
20
20
60
ENDCHAR
STARTCHAR egrave
ENCODING 232
SWIDTH 471 0
DWIDTH 7 0
BBX 5 11 1 0
BITMAP
10
30
10
00
38
48
C8
98
E0
88
F0
ENDCHAR
STARTCHAR eacute
ENCODING 233
SWIDTH 471 0
DWIDTH 7 0
BBX 5 11 1 0
BITMAP
08
08
10
20
38
48
C8
98
E0
88
F0
ENDCHAR
STARTCHAR ecircumflex
ENCODING 234
SWIDTH 471 0
DWIDTH 7 0
BBX 6 11 1 0
BITMAP
08
18
64
00
38
48
C8
98
E0
88
F0
ENDCHAR
STARTCHAR edieresis
ENCODING 235
SWIDTH 471 0
DWIDTH 7 0
BBX 6 11 1 0
BITMAP
6C
64
00
00
38
48
D8
F0
80
88
F0
ENDCHAR
STARTCHAR igrave
ENCODING 236
SWIDTH 286 0
DWIDTH 4 0
BBX 4 11 0 0
BITMAP
30
20
30
00
70
20
20
40
40
C0
60
ENDCHAR
STARTCHAR iacute
ENCODING 237
SWIDTH 286 0
DWIDTH 4 0
BBX 5 11 0 0
BITMAP
08
18
30
20
70
20
20
40
40
C0
60
ENDCHAR
STARTCHAR icircumflex
ENCODING 238
SWIDTH 286 0
DWIDTH 4 0
BBX 6 11 0 0
BITMAP
08
38
4C
00
70
20
20
40
40
C0
60
ENDCHAR
STARTCHAR idieresis
ENCODING 239
SWIDTH 286 0
DWIDTH 4 0
BBX 6 11 0 0
BITMAP
6C
6C
00
00
70
20
20
40
40
C0
60
ENDCHAR
STARTCHAR eth
ENCODING 240
SWIDTH 524 0
DWIDTH 7 0
BBX 8 12 1 0
BITMAP
08
04
07
1C
04
3C
4C
CC
88
98
90
E0
ENDCHAR
STARTCHAR ntilde
ENCODING 241
SWIDTH 561 0
DWIDTH 8 0
BBX 8 11 0 0
BITMAP
0D
15
16
00
66
2A
36
66
44
CC
86
ENDCHAR
STARTCHAR ograve
ENCODING 242
SWIDTH 514 0
DWIDTH 7 0
BBX 6 11 1 0
BITMAP
18
18
08
00
38
4C
CC
8C
98
90
E0
ENDCHAR
STARTCHAR oacute
ENCODING 243
SWIDTH 514 0
DWIDTH 7 0
BBX 6 11 1 0
BITMAP
04
0C
08
10
38
4C
CC
8C
98
90
E0
ENDCHAR
STARTCHAR ocircumflex
ENCODING 244
SWIDTH 514 0
DWIDTH 7 0
BBX 7 11 1 0
BITMAP
04
1C
36
00
38
4C
CC
8C
98
90
E0
ENDCHAR
STARTCHAR otilde
ENCODING 245
SWIDTH 514 0
DWIDTH 7 0
BBX 7 11 1 0
BITMAP
1A
2A
2C
00
38
4C
CC
8C
98
90
E0
ENDCHAR
STARTCHAR odieresis
ENCODING 246
SWIDTH 514 0
DWIDTH 7 0
BBX 7 11 1 0
BITMAP
36
36
00
00
38
4C
CC
8C
98
90
E0
ENDCHAR
STARTCHAR divide
ENCODING 247
SWIDTH 617 0
DWIDTH 9 0
BBX 7 7 1 2
BITMAP
18
10
00
FE
00
30
10
ENDCHAR
STARTCHAR oslash
ENCODING 248
SWIDTH 514 0
DWIDTH 7 0
BBX 6 9 1 -1
BITMAP
04
38
5C
DC
AC
B8
D0
E0
80
ENDCHAR
STARTCHAR ugrave
ENCODING 249
SWIDTH 553 0
DWIDTH 8 0
BBX 8 11 0 0
BITMAP
0C
0C
04
00
33
22
26
6C
4C
DC
66
ENDCHAR
STARTCHAR uacute
ENCODING 250
SWIDTH 553 0
DWIDTH 8 0
BBX 8 11 0 0
BITMAP
02
02
04
08
33
22
26
64
4C
DC
66
ENDCHAR
STARTCHAR ucircumflex
ENCODING 251
SWIDTH 553 0
DWIDTH 8 0
BBX 8 11 0 0
BITMAP
02
06
1B
00
33
22
26
64
4C
DC
66
ENDCHAR
STARTCHAR udieresis
ENCODING 252
SWIDTH 553 0
DWIDTH 8 0
BBX 8 11 0 0
BITMAP
1B
1B
00
00
33
22
26
64
4C
DC
66
ENDCHAR
STARTCHAR yacute
ENCODING 253
SWIDTH 549 0
DWIDTH 8 0
BBX 8 15 0 -4
BITMAP
02
06
04
08
33
32
26
66
4C
D4
6C
08
18
30
60
ENDCHAR
STARTCHAR thorn
ENCODING 254
SWIDTH 552 0
DWIDTH 8 0
BBX 8 15 -1 -4
BITMAP
0C
0C
08
08
1F
19
11
33
23
26
7C
40
40
C0
80
ENDCHAR
STARTCHAR ydieresis
ENCODING 255
SWIDTH 549 0
DWIDTH 8 0
BBX 8 15 0 -4
BITMAP
1B
1B
00
00
33
32
26
66
4C
D4
6C
08
18
30
60
ENDCHAR
STARTCHAR Amacron
ENCODING 256
SWIDTH 615 0
DWIDTH 9 0
BBX 11 13 -1 0
BITMAP
03E0
0000
00C0
03C0
0680
0480
0980
1FC0
3100
2300
2300
4300
C380
ENDCHAR
STARTCHAR amacron
ENCODING 257
SWIDTH 543 0
DWIDTH 8 0
BBX 8 9 0 0
BITMAP
1F
00
1F
26
66
44
CC
4C
76
ENDCHAR
STARTCHAR Abreve
ENCODING 258
SWIDTH 615 0
DWIDTH 9 0
BBX 12 14 -1 0
BITMAP
0110
0120
00C0
00C0
03C0
0680
0480
0980
1FC0
3100
2300
2300
4300
C380
ENDCHAR
STARTCHAR abreve
ENCODING 259
SWIDTH 543 0
DWIDTH 8 0
BBX 8 11 0 0
BITMAP
09
1A
0C
00
1F
26
66
44
CC
4C
76
ENDCHAR
STARTCHAR Aogonek
ENCODING 260
SWIDTH 615 0
DWIDTH 9 0
BBX 10 14 -1 -3
BITMAP
00C0
03C0
0680
0480
0980
1FC0
3100
2300
2300
4380
C380
0200
0600
0700
ENDCHAR
STARTCHAR aogonek
ENCODING 261
SWIDTH 541 0
DWIDTH 8 0
BBX 8 10 0 -3
BITMAP
1F
26
66
44
CC
4C
76
04
08
0C
ENDCHAR
STARTCHAR Cacute
ENCODING 262
SWIDTH 533 0
DWIDTH 7 0
BBX 8 14 1 0
BITMAP
01
01
02
0E
32
23
66
C4
C0
80
80
80
C8
78
ENDCHAR
STARTCHAR cacute
ENCODING 263
SWIDTH 468 0
DWIDTH 7 0
BBX 8 11 0 0
BITMAP
02
03
06
08
1C
24
6C
44
C0
44
78
ENDCHAR
STARTCHAR Ccircumflex
ENCODING 264
SWIDTH 533 0
DWIDTH 7 0
BBX 9 13 1 0
BITMAP
0300
0D80
0E00
3200
2300
6600
C400
C000
8000
8000
8000
C800
7800
ENDCHAR
STARTCHAR ccircumflex
ENCODING 265
SWIDTH 468 0
DWIDTH 7 0
BBX 8 11 0 0
BITMAP
02
0E
13
00
1C
24
6C
44
C0
44
78
ENDCHAR
STARTCHAR Cdotaccent
ENCODING 266
SWIDTH 533 0
DWIDTH 7 0
BBX 8 14 1 0
BITMAP
04
06
04
0E
32
23
66
C4
C0
80
80
80
C8
78
ENDCHAR
STARTCHAR cdotaccent
ENCODING 267
SWIDTH 468 0
DWIDTH 7 0
BBX 6 11 0 0
BITMAP
0C
04
00
00
1C
24
6C
44
C0
44
78
ENDCHAR
STARTCHAR Ccaron
ENCODING 268
SWIDTH 533 0
DWIDTH 7 0
BBX 9 14 1 0
BITMAP
0880
0780
0400
0E00
3200
2300
6600
C400
C000
8000
8000
8000
C800
7800
ENDCHAR
STARTCHAR ccaron
ENCODING 269
SWIDTH 468 0
DWIDTH 7 0
BBX 8 11 0 0
BITMAP
09
0B
0C
00
1C
24
6C
44
C0
44
78
ENDCHAR
STARTCHAR Dcaron
ENCODING 270
SWIDTH 630 0
DWIDTH 9 0
BBX 8 14 1 0
BITMAP
01
0F
04
7C
C2
33
21
63
43
C2
C6
8C
98
E0
ENDCHAR
STARTCHAR dcaron
ENCODING 271
SWIDTH 557 0
DWIDTH 8 0
BBX 10 12 1 0
BITMAP
0140
0340
0340
0280
0600
3C00
6400
CC00
8C00
9800
9800
EC00
ENDCHAR
STARTCHAR Dcroat
ENCODING 272
SWIDTH 630 0
DWIDTH 9 0
BBX 9 11 0 0
BITMAP
3E00
6100
1980
1180
3180
FD80
6100
6300
4600
4C00
7000
ENDCHAR
STARTCHAR dcroat
ENCODING 273
SWIDTH 557 0
DWIDTH 8 0
BBX 8 12 1 0
BITMAP
01
03
0F
02
06
3C
64
CC
8C
98
98
EC
ENDCHAR
STARTCHAR Emacron
ENCODING 274
SWIDTH 509 0
DWIDTH 7 0
BBX 8 13 1 0
BITMAP
1F
00
1E
32
66
4C
40
70
70
C0
88
88
F0
ENDCHAR
STARTCHAR emacron
ENCODING 275
SWIDTH 471 0
DWIDTH 7 0
BBX 6 9 1 0
BITMAP
7C
00
38
48
C8
98
E0
88
F0
ENDCHAR
STARTCHAR Ebreve
ENCODING 276
SWIDTH 509 0
DWIDTH 7 0
BBX 8 14 1 0
BITMAP
09
19
0E
1E
32
66
4C
40
70
70
C0
88
88
F0
ENDCHAR
STARTCHAR ebreve
ENCODING 277
SWIDTH 471 0
DWIDTH 7 0
BBX 6 11 1 0
BITMAP
24
24
18
00
38
48
C8
98
E0
88
F0
ENDCHAR
STARTCHAR Edotaccent
ENCODING 278
SWIDTH 509 0
DWIDTH 7 0
BBX 7 14 1 0
BITMAP
08
0C
08
1E
32
66
4C
40
70
70
C0
88
88
F0
ENDCHAR
STARTCHAR edotaccent
ENCODING 279
SWIDTH 471 0
DWIDTH 7 0
BBX 5 11 1 0
BITMAP
18
18
00
00
38
48
C8
98
E0
88
F0
ENDCHAR
STARTCHAR Eogonek
ENCODING 280
SWIDTH 509 0
DWIDTH 7 0
BBX 7 14 1 -3
BITMAP
1E
32
66
4C
40
70
70
C0
88
88
F0
40
40
E0
ENDCHAR
STARTCHAR eogonek
ENCODING 281
SWIDTH 471 0
DWIDTH 7 0
BBX 5 10 1 -3
BITMAP
38
48
C8
98
E0
88
F0
20
40
60
ENDCHAR
STARTCHAR Ecaron
ENCODING 282
SWIDTH 509 0
DWIDTH 7 0
BBX 8 14 1 0
BITMAP
11
0F
08
1E
32
66
4C
40
70
70
C0
88
88
F0
ENDCHAR
STARTCHAR ecaron
ENCODING 283
SWIDTH 471 0
DWIDTH 7 0
BBX 7 11 1 0
BITMAP
32
14
18
00
38
48
C8
98
E0
88
F0
ENDCHAR
STARTCHAR Gcircumflex
ENCODING 284
SWIDTH 598 0
DWIDTH 8 0
BBX 9 13 1 0
BITMAP
0300
0D80
0E00
3200
2300
6200
C600
C400
8000
9E00
8C00
C800
7000
ENDCHAR
STARTCHAR gcircumflex
ENCODING 285
SWIDTH 526 0
DWIDTH 7 0
BBX 7 15 1 -4
BITMAP
04
1C
36
00
3C
44
CC
8C
98
98
F8
10
30
60
C0
ENDCHAR
STARTCHAR Gbreve
ENCODING 286
SWIDTH 598 0
DWIDTH 8 0
BBX 9 14 1 0
BITMAP
0480
0480
0700
0E00
3200
2300
6200
C600
C400
8000
9E00
8C00
C800
7000
ENDCHAR
STARTCHAR gbreve
ENCODING 287
SWIDTH 526 0
DWIDTH 7 0
BBX 7 15 1 -4
BITMAP
12
12
1C
00
3C
44
CC
8C
98
98
F8
10
30
60
C0
ENDCHAR
STARTCHAR Gdotaccent
ENCODING 288
SWIDTH 598 0
DWIDTH 8 0
BBX 8 14 1 0
BITMAP
04
06
04
0E
32
23
62
C6
C4
80
9E
8C
C8
70
ENDCHAR
STARTCHAR gdotaccent
ENCODING 289
SWIDTH 526 0
DWIDTH 7 0
BBX 6 15 1 -4
BITMAP
1C
08
00
00
3C
44
CC
8C
98
98
F8
10
30
60
C0
ENDCHAR
STARTCHAR Gcommaaccent
ENCODING 290
SWIDTH 598 0
DWIDTH 8 0
BBX 8 15 1 -4
BITMAP
0E
32
23
62
C6
C4
80
9E
8C
C8
70
00
40
40
80
ENDCHAR
STARTCHAR gcommaaccent
ENCODING 291
SWIDTH 526 0
DWIDTH 7 0
BBX 6 15 1 -4
BITMAP
04
08
08
00
3C
44
CC
8C
98
98
F8
10
30
60
C0
ENDCHAR
STARTCHAR Hcircumflex
ENCODING 292
SWIDTH 668 0
DWIDTH 9 0
BBX 11 13 -1 0
BITMAP
0180
06C0
3860
0C60
0C60
0840
18C0
3FC0
1080
3180
2100
6100
C180
ENDCHAR
STARTCHAR hcircumflex
ENCODING 293
SWIDTH 555 0
DWIDTH 8 0
BBX 7 14 0 0
BITMAP
0C
1C
64
18
10
10
30
36
2A
76
66
4C
CC
86
ENDCHAR
STARTCHAR Hbar
ENCODING 294
SWIDTH 668 0
DWIDTH 9 0
BBX 12 11 -1 0
BITMAP
3860
0C60
0C60
3FF0
08C0
1FC0
3080
3180
2100
6100
C180
ENDCHAR
STARTCHAR hbar
ENCODING 295
SWIDTH 555 0
DWIDTH 8 0
BBX 7 12 0 0
BITMAP
10
18
3E
10
30
36
2A
36
66
4C
CC
86
ENDCHAR
STARTCHAR Itilde
ENCODING 296
SWIDTH 327 0
DWIDTH 5 0
BBX 7 13 0 0
BITMAP
1A
2C
78
18
18
18
10
30
30
20
60
40
80
ENDCHAR
STARTCHAR itilde
ENCODING 297
SWIDTH 286 0
DWIDTH 4 0
BBX 6 11 0 0
BITMAP
34
54
58
00
70
20
20
40
40
C0
60
ENDCHAR
STARTCHAR Imacron
ENCODING 298
SWIDTH 327 0
DWIDTH 5 0
BBX 7 13 0 0
BITMAP
3E
00
78
18
18
18
10
30
30
20
60
40
80
ENDCHAR
STARTCHAR imacron
ENCODING 299
SWIDTH 286 0
DWIDTH 4 0
BBX 6 9 0 0
BITMAP
7C
00
70
20
20
40
40
C0
60
ENDCHAR
STARTCHAR Ibreve
ENCODING 300
SWIDTH 327 0
DWIDTH 5 0
BBX 7 14 0 0
BITMAP
12
12
1C
78
18
18
18
10
30
30
20
60
40
80
ENDCHAR
STARTCHAR ibreve
ENCODING 301
SWIDTH 286 0
DWIDTH 4 0
BBX 6 11 0 0
BITMAP
24
68
30
00
70
20
20
40
40
C0
60
ENDCHAR
STARTCHAR Iogonek
ENCODING 302
SWIDTH 327 0
DWIDTH 5 0
BBX 7 14 -2 -3
BITMAP
1E
06
06
04
04
0C
0C
08
18
10
20
40
C0
E0
ENDCHAR
STARTCHAR iogonek
ENCODING 303
SWIDTH 297 0
DWIDTH 4 0
BBX 5 14 0 -3
BITMAP
18
10
00
00
30
30
20
60
40
40
60
40
80
C0
ENDCHAR
STARTCHAR Idotaccent
ENCODING 304
SWIDTH 327 0
DWIDTH 5 0
BBX 5 14 0 0
BITMAP
10
18
10
78
18
18
18
10
30
30
20
60
40
80
ENDCHAR
STARTCHAR dotlessi
ENCODING 305
SWIDTH 286 0
DWIDTH 4 0
BBX 4 7 0 0
BITMAP
70
20
20
40
40
C0
60
ENDCHAR
STARTCHAR IJ
ENCODING 306
SWIDTH 720 0
DWIDTH 10 0
BBX 11 15 0 -4
BITMAP
79C0
1E60
1840
18C0
10C0
30C0
3080
2180
6100
4300
8300
0600
0400
0800
3000
ENDCHAR
STARTCHAR ij
ENCODING 307
SWIDTH 567 0
DWIDTH 8 0
BBX 8 15 0 -4
BITMAP
3B
13
00
00
76
22
22
46
46
C4
64
08
08
10
20
ENDCHAR
STARTCHAR Jcircumflex
ENCODING 308
SWIDTH 393 0
DWIDTH 6 0
BBX 9 17 -2 -4
BITMAP
0180
0680
0F00
1B00
0300
0300
0200
0600
0600
0400
0C00
0800
1800
1000
3000
6000
C000
ENDCHAR
STARTCHAR jcircumflex
ENCODING 309
SWIDTH 282 0
DWIDTH 4 0
BBX 7 14 -2 -4
BITMAP
06
1A
32
18
08
08
18
18
10
30
30
20
40
80
ENDCHAR
STARTCHAR Kcommaaccent
ENCODING 310
SWIDTH 616 0
DWIDTH 9 0
BBX 10 15 -1 -4
BITMAP
38C0
08C0
08C0
1880
1900
1E00
1C00
3400
2600
6300
C1C0
0000
1800
1000
3000
ENDCHAR
STARTCHAR kcommaaccent
ENCODING 311
SWIDTH 497 0
DWIDTH 7 0
BBX 7 15 0 -4
BITMAP
18
18
10
10
36
26
2C
70
50
DA
8C
00
60
20
40
ENDCHAR
STARTCHAR kgreenlandic
ENCODING 312
SWIDTH 497 0
DWIDTH 7 0
BBX 7 7 0 0
BITMAP
66
26
2C
78
70
D8
CE
ENDCHAR
STARTCHAR Lacute
ENCODING 313
SWIDTH 517 0
DWIDTH 7 0
BBX 9 14 0 0
BITMAP
0100
0180
0300
0600
0900
1900
1300
3600
2400
6000
6000
4000
9C00
FE00
ENDCHAR
STARTCHAR lacute
ENCODING 314
SWIDTH 279 0
DWIDTH 4 0
BBX 6 14 0 0
BITMAP
04
04
08
10
10
10
30
20
20
60
40
40
C0
60
ENDCHAR
STARTCHAR Lcommaaccent
ENCODING 315
SWIDTH 517 0
DWIDTH 7 0
BBX 8 15 0 -4
BITMAP
06
09
19
13
36
24
60
60
40
9C
FE
00
60
40
C0
ENDCHAR
STARTCHAR lcommaaccent
ENCODING 316
SWIDTH 279 0
DWIDTH 4 0
BBX 4 15 0 -4
BITMAP
10
10
10
30
30
20
60
40
40
C0
60
00
C0
40
80
ENDCHAR
STARTCHAR Lcaron
ENCODING 317
SWIDTH 517 0
DWIDTH 7 0
BBX 11 13 0 0
BITMAP
0060
0040
0640
0980
1900
1300
3600
2400
6000
6000
4000
9C00
FE00
ENDCHAR
STARTCHAR lcaron
ENCODING 318
SWIDTH 467 0
DWIDTH 7 0
BBX 8 12 0 0
BITMAP
12
13
12
16
30
20
20
60
40
40
D0
60
ENDCHAR
STARTCHAR Ldot
ENCODING 319
SWIDTH 668 0
DWIDTH 9 0
BBX 10 11 0 0
BITMAP
0600
0900
1900
1300
3600
2480
61C0
6000
4000
9C00
FE00
ENDCHAR
STARTCHAR ldot
ENCODING 320
SWIDTH 489 0
DWIDTH 7 0
BBX 7 12 0 0
BITMAP
10
10
10
10
30
20
24
6E
44
40
D0
60
ENDCHAR
STARTCHAR Lslash
ENCODING 321
SWIDTH 517 0
DWIDTH 7 0
BBX 8 11 0 0
BITMAP
06
09
19
13
36
24
78
E0
40
BC
FE
ENDCHAR
STARTCHAR lslash
ENCODING 322
SWIDTH 279 0
DWIDTH 4 0
BBX 6 12 0 0
BITMAP
20
3C
10
10
30
20
20
60
40
40
C0
60
ENDCHAR
STARTCHAR Nacute
ENCODING 323
SWIDTH 708 0
DWIDTH 10 0
BBX 11 14 0 0
BITMAP
0040
0040
00C0
0C40
1C60
1C60
2C40
2C40
6CC0
4480
4500
C700
C700
8200
ENDCHAR
STARTCHAR nacute
ENCODING 324
SWIDTH 561 0
DWIDTH 8 0
BBX 7 11 0 0
BITMAP
02
02
04
08
66
2A
36
66
44
CC
86
ENDCHAR
STARTCHAR Ncommaaccent
ENCODING 325
SWIDTH 708 0
DWIDTH 10 0
BBX 11 15 0 -4
BITMAP
0C40
1C60
1C60
2C40
2C40
6CC0
4480
4500
C700
C700
8200
0000
1800
0800
1000
ENDCHAR
STARTCHAR ncommaaccent
ENCODING 326
SWIDTH 561 0
DWIDTH 8 0
BBX 7 11 0 -4
BITMAP
66
2A
36
66
44
CC
86
00
60
20
40
ENDCHAR
STARTCHAR Ncaron
ENCODING 327
SWIDTH 708 0
DWIDTH 10 0
BBX 11 14 0 0
BITMAP
0220
01E0
0100
0C40
1C60
1C60
2C40
2C40
6CC0
4480
4500
C700
C700
8200
ENDCHAR
STARTCHAR ncaron
ENCODING 328
SWIDTH 561 0
DWIDTH 8 0
BBX 8 11 0 0
BITMAP
09
0B
0C
00
66
2A
36
66
44
CC
86
ENDCHAR
STARTCHAR Eng
ENCODING 330
SWIDTH 698 0
DWIDTH 10 0
BBX 11 15 0 -4
BITMAP
0CC0
1C60
1C60
2C40
2C40
6CC0
4CC0
4480
C780
8700
8300
0600
0400
0800
3000
ENDCHAR
STARTCHAR eng
ENCODING 331
SWIDTH 561 0
DWIDTH 8 0
BBX 7 11 0 -4
BITMAP
66
2A
32
66
46
C4
8C
08
18
30
60
ENDCHAR
STARTCHAR Omacron
ENCODING 332
SWIDTH 655 0
DWIDTH 9 0
BBX 9 13 1 0
BITMAP
0F80
0000
0E00
1100
2100
6100
4100
C300
C300
8600
8400
8C00
7000
ENDCHAR
STARTCHAR omacron
ENCODING 333
SWIDTH 514 0
DWIDTH 7 0
BBX 7 9 1 0
BITMAP
3E
00
38
4C
CC
8C
98
90
E0
ENDCHAR
STARTCHAR Obreve
ENCODING 334
SWIDTH 655 0
DWIDTH 9 0
BBX 9 14 1 0
BITMAP
0480
0480
0700
0E00
1100
2100
6100
4100
C300
C300
8600
8400
8C00
7000
ENDCHAR
STARTCHAR obreve
ENCODING 335
SWIDTH 514 0
DWIDTH 7 0
BBX 7 11 1 0
BITMAP
12
12
1C
00
38
4C
CC
8C
98
90
E0
ENDCHAR
STARTCHAR Ohungarumlaut
ENCODING 336
SWIDTH 655 0
DWIDTH 9 0
BBX 9 14 1 0
BITMAP
0280
0680
0500
0E00
1100
2100
6100
4100
C300
C300
8600
8400
8C00
7000
ENDCHAR
STARTCHAR ohungarumlaut
ENCODING 337
SWIDTH 514 0
DWIDTH 7 0
BBX 7 11 1 0
BITMAP
0A
12
34
28
38
4C
CC
8C
98
90
E0
ENDCHAR
STARTCHAR OE
ENCODING 338
SWIDTH 900 0
DWIDTH 13 0
BBX 13 11 1 0
BITMAP
0778
19C8
3188
2138
6100
61C0
41C0
C300
4220
4620
3BC0
ENDCHAR
STARTCHAR oe
ENCODING 339
SWIDTH 777 0
DWIDTH 11 0
BBX 10 7 1 0
BITMAP
39C0
6E40
CCC0
CD80
8E00
9C80
F780
ENDCHAR
STARTCHAR Racute
ENCODING 340
SWIDTH 623 0
DWIDTH 9 0
BBX 9 14 0 0
BITMAP
0100
0100
0200
1E00
2100
1980
1180
3300
3600
3800
6C00
6400
C600
8300
ENDCHAR
STARTCHAR racute
ENCODING 341
SWIDTH 407 0
DWIDTH 6 0
BBX 7 11 0 0
BITMAP
04
06
0C
10
6C
2C
30
60
40
C0
C0
ENDCHAR
STARTCHAR Rcommaaccent
ENCODING 342
SWIDTH 623 0
DWIDTH 9 0
BBX 9 15 0 -4
BITMAP
1E00
2100
1980
1180
3300
3600
3800
6C00
6400
C600
8300
0000
2000
2000
4000
ENDCHAR
STARTCHAR rcommaaccent
ENCODING 343
SWIDTH 407 0
DWIDTH 6 0
BBX 7 11 -1 -4
BITMAP
36
16
18
30
20
60
60
00
40
40
80
ENDCHAR
STARTCHAR Rcaron
ENCODING 344
SWIDTH 623 0
DWIDTH 9 0
BBX 9 14 0 0
BITMAP
0880
0780
0400
1E00
2100
1980
1180
3300
3600
3800
6C00
6400
C600
8300
ENDCHAR
STARTCHAR rcaron
ENCODING 345
SWIDTH 407 0
DWIDTH 6 0
BBX 8 11 0 0
BITMAP
11
1E
08
00
6C
2C
30
60
40
C0
C0
ENDCHAR
STARTCHAR Sacute
ENCODING 346
SWIDTH 474 0
DWIDTH 7 0
BBX 8 14 0 0
BITMAP
01
01
02
0E
33
23
23
26
30
30
18
48
C8
70
ENDCHAR
STARTCHAR sacute
ENCODING 347
SWIDTH 423 0
DWIDTH 6 0
BBX 7 11 0 0
BITMAP
04
06
0C
10
3C
64
68
30
10
90
70
ENDCHAR
STARTCHAR Scircumflex
ENCODING 348
SWIDTH 474 0
DWIDTH 7 0
BBX 8 13 0 0
BITMAP
03
0D
0E
33
23
23
26
30
30
18
48
C8
70
ENDCHAR
STARTCHAR scircumflex
ENCODING 349
SWIDTH 423 0
DWIDTH 6 0
BBX 7 11 0 0
BITMAP
04
0C
36
00
3C
64
68
30
10
90
70
ENDCHAR
STARTCHAR Scedilla
ENCODING 350
SWIDTH 474 0
DWIDTH 7 0
BBX 8 13 0 -2
BITMAP
1E
33
23
22
26
30
18
48
C8
70
20
20
60
ENDCHAR
STARTCHAR scedilla
ENCODING 351
SWIDTH 423 0
DWIDTH 6 0
BBX 6 10 0 -3
BITMAP
3C
64
68
30
30
90
F0
40
60
C0
ENDCHAR
STARTCHAR Scaron
ENCODING 352
SWIDTH 474 0
DWIDTH 7 0
BBX 9 14 0 0
BITMAP
0880
0780
0400
0E00
3300
2300
2300
2600
3000
3000
1800
4800
C800
7000
ENDCHAR
STARTCHAR scaron
ENCODING 353
SWIDTH 423 0
DWIDTH 6 0
BBX 8 11 0 0
BITMAP
11
0A
0C
00
3C
64
68
30
10
90
70
ENDCHAR
STARTCHAR Tcommaaccent
ENCODING 354
SWIDTH 471 0
DWIDTH 7 0
BBX 8 15 1 -4
BITMAP
71
9E
98
10
30
30
30
20
60
40
80
00
C0
40
80
ENDCHAR
STARTCHAR tcommaaccent
ENCODING 355
SWIDTH 358 0
DWIDTH 5 0
BBX 6 13 0 -4
BITMAP
10
10
7C
20
60
40
40
50
70
00
40
40
80
ENDCHAR
STARTCHAR Tcaron
ENCODING 356
SWIDTH 471 0
DWIDTH 7 0
BBX 8 14 1 0
BITMAP
01
0F
04
71
9E
98
10
30
30
30
20
60
40
80
ENDCHAR
STARTCHAR tcaron
ENCODING 357
SWIDTH 497 0
DWIDTH 7 0
BBX 7 12 1 0
BITMAP
02
02
02
14
30
78
60
40
40
C0
D0
60
ENDCHAR
STARTCHAR Tbar
ENCODING 358
SWIDTH 471 0
DWIDTH 7 0
BBX 8 11 1 0
BITMAP
71
9E
98
10
10
F8
30
20
60
40
80
ENDCHAR
STARTCHAR tbar
ENCODING 359
SWIDTH 358 0
DWIDTH 5 0
BBX 6 9 0 0
BITMAP
10
30
7C
20
F8
40
40
50
70
ENDCHAR
STARTCHAR Utilde
ENCODING 360
SWIDTH 624 0
DWIDTH 9 0
BBX 10 13 0 0
BITMAP
0640
0980
18C0
1880
1180
3180
3300
6300
6700
4600
CA00
D200
6380
ENDCHAR
STARTCHAR utilde
ENCODING 361
SWIDTH 553 0
DWIDTH 8 0
BBX 9 11 0 0
BITMAP
0C80
1500
1200
0000
3300
2200
2600
6400
4C00
DC00
6600
ENDCHAR
STARTCHAR Umacron
ENCODING 362
SWIDTH 624 0
DWIDTH 9 0
BBX 10 13 0 0
BITMAP
0F80
0000
18C0
1880
1180
3180
3300
6300
6700
4600
CA00
D200
6380
ENDCHAR
STARTCHAR umacron
ENCODING 363
SWIDTH 553 0
DWIDTH 8 0
BBX 8 9 0 0
BITMAP
1F
00
33
22
26
64
4C
DC
66
ENDCHAR
STARTCHAR Ubreve
ENCODING 364
SWIDTH 624 0
DWIDTH 9 0
BBX 10 14 0 0
BITMAP
0480
0480
0700
18C0
1880
1180
3180
3300
6300
6700
4600
CA00
D200
6380
ENDCHAR
STARTCHAR ubreve
ENCODING 365
SWIDTH 553 0
DWIDTH 8 0
BBX 8 11 0 0
BITMAP
09
09
0E
00
33
22
26
64
4C
DC
66
ENDCHAR
STARTCHAR Uring
ENCODING 366
SWIDTH 624 0
DWIDTH 9 0
BBX 10 14 0 0
BITMAP
0300
0480
0580
1BC0
1880
1180
3180
3300
6300
6700
4600
CA00
D200
6380
ENDCHAR
STARTCHAR uring
ENCODING 367
SWIDTH 553 0
DWIDTH 8 0
BBX 8 11 0 0
BITMAP
07
0B
0E
00
33
22
26
64
4C
DC
66
ENDCHAR
STARTCHAR Uhungarumlaut
ENCODING 368
SWIDTH 624 0
DWIDTH 9 0
BBX 10 14 0 0
BITMAP
0280
0280
0580
18C0
1880
1180
3180
3300
6300
6700
4600
CA00
D200
6380
ENDCHAR
STARTCHAR uhungarumlaut
ENCODING 369
SWIDTH 553 0
DWIDTH 8 0
BBX 8 11 0 0
BITMAP
05
0D
0A
14
33
22
26
64
4C
DC
66
ENDCHAR
STARTCHAR Uogonek
ENCODING 370
SWIDTH 684 0
DWIDTH 10 0
BBX 9 14 1 -3
BITMAP
3080
3180
3100
2300
6300
6600
4600
CE00
8E00
9400
E700
0400
0C00
0E00
ENDCHAR
STARTCHAR uogonek
ENCODING 371
SWIDTH 553 0
DWIDTH 8 0
BBX 8 10 0 -3
BITMAP
33
22
26
64
4C
DC
66
0C
08
0C
ENDCHAR
STARTCHAR Wcircumflex
ENCODING 372
SWIDTH 941 0
DWIDTH 13 0
BBX 13 13 1 0
BITMAP
01C0
0340
F018
3018
3198
2318
6618
6E10
DE30
D620
A460
A4C0
C300
ENDCHAR
STARTCHAR wcircumflex
ENCODING 373
SWIDTH 750 0
DWIDTH 11 0
BBX 10 11 0 0
BITMAP
0100
0300
0D80
0000
70C0
2640
2440
6C40
5C80
6D80
C600
ENDCHAR
STARTCHAR Ycircumflex
ENCODING 374
SWIDTH 580 0
DWIDTH 8 0
BBX 10 17 0 -4
BITMAP
0300
0D80
38C0
1880
1180
3180
3300
6300
6600
4600
CA00
D400
6400
0800
1800
3000
6000
ENDCHAR
STARTCHAR ycircumflex
ENCODING 375
SWIDTH 549 0
DWIDTH 8 0
BBX 8 15 0 -4
BITMAP
02
0E
1B
00
33
32
26
66
4C
D4
6C
08
18
30
60
ENDCHAR
STARTCHAR Ydieresis
ENCODING 376
SWIDTH 580 0
DWIDTH 8 0
BBX 10 17 0 -4
BITMAP
0D80
0D80
38C0
1880
1180
3180
3300
6300
6600
4600
CA00
D400
6400
0800
1800
3000
6000
ENDCHAR
STARTCHAR Zacute
ENCODING 377
SWIDTH 501 0
DWIDTH 7 0
BBX 8 14 0 0
BITMAP
02
03
06
23
3D
03
06
0C
18
30
60
40
BC
C2
ENDCHAR
STARTCHAR zacute
ENCODING 378
SWIDTH 430 0
DWIDTH 6 0
BBX 7 11 0 0
BITMAP
02
06
0C
08
3C
0C
18
30
60
D0
F8
ENDCHAR
STARTCHAR Zdotaccent
ENCODING 379
SWIDTH 501 0
DWIDTH 7 0
BBX 8 14 0 0
BITMAP
04
0C
04
23
3D
03
06
0C
18
30
60
40
BC
C6
ENDCHAR
STARTCHAR zdotaccent
ENCODING 380
SWIDTH 430 0
DWIDTH 6 0
BBX 6 11 0 0
BITMAP
1C
08
00
00
3C
0C
18
30
60
D0
F8
ENDCHAR
STARTCHAR Zcaron
ENCODING 381
SWIDTH 501 0
DWIDTH 7 0
BBX 8 14 0 0
BITMAP
01
0F
04
23
3D
03
06
0C
18
30
60
40
BC
C2
ENDCHAR
STARTCHAR zcaron
ENCODING 382
SWIDTH 430 0
DWIDTH 6 0
BBX 7 11 0 0
BITMAP
12
16
18
00
3C
0C
18
30
60
D0
F8
ENDCHAR
STARTCHAR florin
ENCODING 402
SWIDTH 466 0
DWIDTH 7 0
BBX 11 15 -3 -4
BITMAP
00E0
01A0
0120
0360
0200
0780
0E00
0400
0400
0C00
0C00
0800
0800
D000
7000
ENDCHAR
STARTCHAR AEacute
ENCODING 508
SWIDTH 878 0
DWIDTH 12 0
BBX 14 14 -1 0
BITMAP
0010
0010
0020
00FC
0364
02C4
04DC
0C80
0880
3FF0
3180
2190
6110
C1E0
ENDCHAR
STARTCHAR aeacute
ENCODING 509
SWIDTH 770 0
DWIDTH 11 0
BBX 11 11 0 0
BITMAP
0100
0100
0200
0400
1FC0
2660
6640
44C0
CF80
4C40
7780
ENDCHAR
STARTCHAR Scommaaccent
ENCODING 536
SWIDTH 474 0
DWIDTH 7 0
BBX 8 15 0 -4
BITMAP
0E
33
23
23
26
30
30
18
48
C8
70
00
60
20
40
ENDCHAR
STARTCHAR scommaaccent
ENCODING 537
SWIDTH 423 0
DWIDTH 6 0
BBX 6 11 0 -4
BITMAP
3C
64
68
30
10
90
70
00
60
40
C0
ENDCHAR
STARTCHAR dotlessj
ENCODING 567
SWIDTH 277 0
DWIDTH 4 0
BBX 5 11 -2 -4
BITMAP
18
08
08
18
18
10
30
20
60
40
80
ENDCHAR
STARTCHAR circumflex
ENCODING 710
SWIDTH 354 0
DWIDTH 5 0
BBX 5 3 0 8
BITMAP
10
30
C8
ENDCHAR
STARTCHAR caron
ENCODING 711
SWIDTH 381 0
DWIDTH 5 0
BBX 4 3 1 8
BITMAP
90
B0
C0
ENDCHAR
STARTCHAR breve
ENCODING 728
SWIDTH 344 0
DWIDTH 5 0
BBX 4 2 1 9
BITMAP
90
E0
ENDCHAR
STARTCHAR dotaccent
ENCODING 729
SWIDTH 217 0
DWIDTH 3 0
BBX 2 2 1 9
BITMAP
C0
C0
ENDCHAR
STARTCHAR ring
ENCODING 730
SWIDTH 402 0
DWIDTH 6 0
BBX 4 4 2 7
BITMAP
60
B0
A0
E0
ENDCHAR
STARTCHAR ogonek
ENCODING 731
SWIDTH 311 0
DWIDTH 4 0
BBX 3 4 1 -3
BITMAP
60
80
80
C0
ENDCHAR
STARTCHAR tilde
ENCODING 732
SWIDTH 397 0
DWIDTH 6 0
BBX 5 2 1 9
BITMAP
68
B0
ENDCHAR
STARTCHAR hungarumlaut
ENCODING 733
SWIDTH 392 0
DWIDTH 5 0
BBX 6 3 0 8
BITMAP
2C
68
D0
ENDCHAR
STARTCHAR pi
ENCODING 960
SWIDTH 640 0
DWIDTH 9 0
BBX 9 7 0 0
BITMAP
7F80
1200
1600
2600
6400
4500
C600
ENDCHAR
STARTCHAR uni1E02
ENCODING 7682
SWIDTH 551 0
DWIDTH 8 0
BBX 7 14 1 0
BITMAP
08
0C
08
7C
C2
32
62
66
CC
F8
8C
8C
88
F0
ENDCHAR
STARTCHAR uni1E03
ENCODING 7683
SWIDTH 525 0
DWIDTH 7 0
BBX 7 12 1 0
BITMAP
20
26
26
60
40
58
EC
CC
8C
88
98
E0
ENDCHAR
STARTCHAR uni1E0A
ENCODING 7690
SWIDTH 630 0
DWIDTH 9 0
BBX 8 14 1 0
BITMAP
04
0C
04
7C
C2
33
21
63
43
C2
C6
8C
98
E0
ENDCHAR
STARTCHAR uni1E0B
ENCODING 7691
SWIDTH 557 0
DWIDTH 8 0
BBX 8 12 1 0
BITMAP
01
33
23
02
06
3C
64
CC
8C
98
98
EC
ENDCHAR
STARTCHAR uni1E1E
ENCODING 7710
SWIDTH 518 0
DWIDTH 7 0
BBX 9 14 0 0
BITMAP
0200
0700
0200
7880
4F00
4800
1800
1800
3E00
3000
3000
2000
6000
C000
ENDCHAR
STARTCHAR uni1E1F
ENCODING 7711
SWIDTH 393 0
DWIDTH 6 0
BBX 8 16 0 -2
BITMAP
04
0C
06
0B
1A
16
10
30
7C
20
20
60
40
40
C0
80
ENDCHAR
STARTCHAR uni1E40
ENCODING 7744
SWIDTH 931 0
DWIDTH 13 0
BBX 14 14 -1 0
BITMAP
0010
0030
0010
018C
0394
053C
0D28
0B58
1358
1290
2290
2330
4330
8218
ENDCHAR
STARTCHAR uni1E41
ENCODING 7745
SWIDTH 814 0
DWIDTH 11 0
BBX 11 11 0 0
BITMAP
0300
0300
0000
0000
76E0
2B60
3660
66C0
44C0
CCA0
88C0
ENDCHAR
STARTCHAR uni1E56
ENCODING 7766
SWIDTH 553 0
DWIDTH 8 0
BBX 10 14 -1 0
BITMAP
0100
0180
0100
0F00
3080
0CC0
08C0
1980
1B00
1E00
3000
2000
6000
C000
ENDCHAR
STARTCHAR uni1E57
ENCODING 7767
SWIDTH 550 0
DWIDTH 8 0
BBX 8 15 -1 -4
BITMAP
06
06
00
00
37
19
31
33
23
26
7C
40
40
C0
80
ENDCHAR
STARTCHAR uni1E60
ENCODING 7776
SWIDTH 474 0
DWIDTH 7 0
BBX 8 14 0 0
BITMAP
04
06
04
0E
33
23
23
26
30
30
18
48
C8
70
ENDCHAR
STARTCHAR uni1E61
ENCODING 7777
SWIDTH 423 0
DWIDTH 6 0
BBX 6 11 0 0
BITMAP
0C
0C
00
00
3C
64
68
30
10
90
70
ENDCHAR
STARTCHAR uni1E6A
ENCODING 7786
SWIDTH 430 0
DWIDTH 6 0
BBX 8 14 1 0
BITMAP
08
0C
08
F1
9E
90
30
30
30
20
60
40
C0
80
ENDCHAR
STARTCHAR uni1E6B
ENCODING 7787
SWIDTH 358 0
DWIDTH 5 0
BBX 5 11 1 0
BITMAP
18
10
30
20
F8
40
40
C0
C0
90
E0
ENDCHAR
STARTCHAR Wgrave
ENCODING 7808
SWIDTH 941 0
DWIDTH 13 0
BBX 13 14 1 0
BITMAP
0100
0300
0180
F018
3018
3198
2318
6618
4A10
DE30
D620
A460
A6C0
C300
ENDCHAR
STARTCHAR wgrave
ENCODING 7809
SWIDTH 750 0
DWIDTH 11 0
BBX 10 11 0 0
BITMAP
0600
0600
0200
0000
70C0
2640
2440
6C40
5C80
6D80
C600
ENDCHAR
STARTCHAR Wacute
ENCODING 7810
SWIDTH 941 0
DWIDTH 13 0
BBX 13 14 1 0
BITMAP
0040
0040
0080
F018
3018
3198
2318
6618
6E10
DE30
D620
A460
A4C0
C300
ENDCHAR
STARTCHAR wacute
ENCODING 7811
SWIDTH 750 0
DWIDTH 11 0
BBX 10 11 0 0
BITMAP
0100
0300
0200
0400
70C0
2640
2440
6C40
5C80
6D80
C600
ENDCHAR
STARTCHAR Wdieresis
ENCODING 7812
SWIDTH 941 0
DWIDTH 13 0
BBX 13 14 1 0
BITMAP
0240
0360
0240
F018
3018
3198
2318
6618
4A10
DE30
D620
A460
A6C0
C300
ENDCHAR
STARTCHAR wdieresis
ENCODING 7813
SWIDTH 750 0
DWIDTH 11 0
BBX 10 11 0 0
BITMAP
0D80
0D80
0000
0000
70C0
2640
2440
6C40
5C80
6D80
C600
ENDCHAR
STARTCHAR Ygrave
ENCODING 7922
SWIDTH 580 0
DWIDTH 8 0
BBX 10 18 0 -4
BITMAP
0400
0600
0300
38C0
1880
1180
3180
3300
6300
6600
4600
CA00
D400
6400
0800
1800
3000
6000
ENDCHAR
STARTCHAR ygrave
ENCODING 7923
SWIDTH 549 0
DWIDTH 8 0
BBX 8 15 0 -4
BITMAP
0C
0C
04
00
33
32
26
66
4C
D4
6C
08
18
30
60
ENDCHAR
STARTCHAR endash
ENCODING 8211
SWIDTH 751 0
DWIDTH 11 0
BBX 9 1 1 4
BITMAP
FF80
ENDCHAR
STARTCHAR emdash
ENCODING 8212
SWIDTH 1066 0
DWIDTH 15 0
BBX 13 1 1 4
BITMAP
FFF8
ENDCHAR
STARTCHAR quoteleft
ENCODING 8216
SWIDTH 268 0
DWIDTH 4 0
BBX 2 4 2 8
BITMAP
40
C0
80
C0
ENDCHAR
STARTCHAR quoteright
ENCODING 8217
SWIDTH 268 0
DWIDTH 4 0
BBX 2 4 2 8
BITMAP
40
40
40
80
ENDCHAR
STARTCHAR quotesinglbase
ENCODING 8218
SWIDTH 268 0
DWIDTH 4 0
BBX 2 4 0 -2
BITMAP
40
40
40
80
ENDCHAR
STARTCHAR quotedblleft
ENCODING 8220
SWIDTH 485 0
DWIDTH 7 0
BBX 5 4 2 8
BITMAP
28
58
90
D8
ENDCHAR
STARTCHAR quotedblright
ENCODING 8221
SWIDTH 480 0
DWIDTH 7 0
BBX 5 4 2 8
BITMAP
48
68
48
90
ENDCHAR
STARTCHAR quotedblbase
ENCODING 8222
SWIDTH 463 0
DWIDTH 6 0
BBX 5 4 0 -2
BITMAP
48
58
48
90
ENDCHAR
STARTCHAR dagger
ENCODING 8224
SWIDTH 488 0
DWIDTH 7 0
BBX 6 11 1 0
BITMAP
18
18
94
78
30
20
20
60
40
40
80
ENDCHAR
STARTCHAR daggerdbl
ENCODING 8225
SWIDTH 488 0
DWIDTH 7 0
BBX 6 11 1 0
BITMAP
18
18
DC
30
30
20
F8
60
40
40
80
ENDCHAR
STARTCHAR bullet
ENCODING 8226
SWIDTH 437 0
DWIDTH 6 0
BBX 3 3 2 3
BITMAP
E0
E0
E0
ENDCHAR
STARTCHAR ellipsis
ENCODING 8230
SWIDTH 810 0
DWIDTH 11 0
BBX 10 2 0 0
BITMAP
ECC0
CCC0
ENDCHAR
STARTCHAR perthousand
ENCODING 8240
SWIDTH 1184 0
DWIDTH 17 0
BBX 15 11 1 0
BITMAP
7180
D900
D200
9600
6400
0800
1B8C
1696
24B6
64A4
4718
ENDCHAR
STARTCHAR guilsinglleft
ENCODING 8249
SWIDTH 413 0
DWIDTH 6 0
BBX 4 6 1 1
BITMAP
10
60
C0
C0
60
20
ENDCHAR
STARTCHAR guilsinglright
ENCODING 8250
SWIDTH 416 0
DWIDTH 6 0
BBX 4 6 1 1
BITMAP
40
60
30
60
C0
80
ENDCHAR
STARTCHAR fraction
ENCODING 8260
SWIDTH 580 0
DWIDTH 8 0
BBX 8 12 0 0
BITMAP
01
03
02
04
0C
08
18
10
20
20
40
C0
ENDCHAR
STARTCHAR Euro
ENCODING 8364
SWIDTH 622 0
DWIDTH 9 0
BBX 8 11 1 0
BITMAP
07
09
11
33
22
F8
60
F8
40
64
3C
ENDCHAR
STARTCHAR trademark
ENCODING 8482
SWIDTH 1084 0
DWIDTH 15 0
BBX 12 6 2 5
BITMAP
2110
FF30
2360
65A0
45A0
6920
ENDCHAR
STARTCHAR Omega
ENCODING 8486
SWIDTH 839 0
DWIDTH 12 0
BBX 10 11 1 0
BITMAP
0C00
3300
6180
C080
C0C0
C0C0
C0C0
4080
6180
A340
F3C0
ENDCHAR
STARTCHAR partialdiff
ENCODING 8706
SWIDTH 580 0
DWIDTH 8 0
BBX 8 11 0 0
BITMAP
0E
19
01
1D
33
63
62
C6
C4
4C
70
ENDCHAR
STARTCHAR Delta
ENCODING 8710
SWIDTH 663 0
DWIDTH 9 0
BBX 9 8 0 0
BITMAP
0C00
1400
1600
2200
2300
4100
4180
FF80
ENDCHAR
STARTCHAR product
ENCODING 8719
SWIDTH 667 0
DWIDTH 9 0
BBX 7 12 1 -1
BITMAP
7E
C2
C2
C2
C2
C2
C2
C2
C2
C2
C2
C2
ENDCHAR
STARTCHAR summation
ENCODING 8721
SWIDTH 677 0
DWIDTH 9 0
BBX 9 12 0 -1
BITMAP
3F80
6000
3000
3000
1800
0C00
0C00
0800
1000
2000
6000
FF00
ENDCHAR
STARTCHAR minus
ENCODING 8722
SWIDTH 617 0
DWIDTH 9 0
BBX 7 1 1 5
BITMAP
FE
ENDCHAR
STARTCHAR radical
ENCODING 8730
SWIDTH 709 0
DWIDTH 10 0
BBX 11 13 0 0
BITMAP
0020
0060
0060
00C0
0080
0180
2100
F300
3200
1400
1400
1800
1800
ENDCHAR
STARTCHAR infinity
ENCODING 8734
SWIDTH 681 0
DWIDTH 10 0
BBX 8 4 1 3
BITMAP
EF
99
B9
E6
ENDCHAR
STARTCHAR integral
ENCODING 8747
SWIDTH 583 0
DWIDTH 8 0
BBX 11 16 -1 -3
BITMAP
00C0
01A0
0360
0240
0200
0600
0400
0400
0C00
0C00
0800
1800
D800
9000
A000
4000
ENDCHAR
STARTCHAR approxequal
ENCODING 8776
SWIDTH 671 0
DWIDTH 9 0
BBX 8 6 1 2
BITMAP
31
5B
8E
21
F2
9C
ENDCHAR
STARTCHAR notequal
ENCODING 8800
SWIDTH 617 0
DWIDTH 9 0
BBX 7 9 1 1
BITMAP
02
04
08
FE
10
30
FE
40
C0
ENDCHAR
STARTCHAR lessequal
ENCODING 8804
SWIDTH 704 0
DWIDTH 10 0
BBX 7 9 1 0
BITMAP
06
18
60
C0
60
18
06
00
FE
ENDCHAR
STARTCHAR greaterequal
ENCODING 8805
SWIDTH 617 0
DWIDTH 9 0
BBX 7 9 1 0
BITMAP
C0
30
0C
06
18
60
80
00
FE
ENDCHAR
STARTCHAR lozenge
ENCODING 9674
SWIDTH 580 0
DWIDTH 8 0
BBX 6 11 1 0
BITMAP
10
30
78
48
8C
84
84
48
48
30
30
ENDCHAR
STARTCHAR commaaccent
ENCODING 63171
SWIDTH 250 0
DWIDTH 4 0
BBX 2 3 1 -4
BITMAP
C0
80
80
ENDCHAR
STARTCHAR ff
ENCODING 64256
SWIDTH 773 0
DWIDTH 11 0
BBX 13 14 0 -2
BITMAP
0630
0B48
1A58
16D0
10C0
3080
7FE0
A180
2100
6100
4300
4200
C600
8600
ENDCHAR
STARTCHAR fi
ENCODING 64257
SWIDTH 623 0
DWIDTH 9 0
BBX 9 14 0 -2
BITMAP
0700
0C80
0880
1980
1000
3F00
6100
2300
6200
6200
4600
4700
C000
8000
ENDCHAR
STARTCHAR fl
ENCODING 64258
SWIDTH 637 0
DWIDTH 9 0
BBX 9 14 0 -2
BITMAP
0700
0C80
0880
1880
1180
3100
7D00
2300
2200
6200
4600
4300
C000
8000
ENDCHAR
STARTCHAR .notdef
ENCODING -1
SWIDTH 896 0
DWIDTH 13 0
BBX 13 12 1 0
BITMAP
1FF8
1FF8
3FF0
3270
32F0
79E0
7BE0
71E0
6440
EEC0
FFC0
FF80
ENDCHAR
ENDFONT
